<?xml version="1.0" encoding="utf-8"?>
<!-- Generator: Adobe Illustrator 24.0.1, SVG Export Plug-In . SVG Version: 6.00 Build 0)  -->
<svg version="1.1" id="katman_1" xmlns="http://www.w3.org/2000/svg" xmlns:xlink="http://www.w3.org/1999/xlink" x="0px" y="0px"
	 viewBox="0 0 100 17.1" style="enable-background:new 0 0 100 17.1;" xml:space="preserve">
<style type="text/css">
	.st0{fill:#FFFFFF;}
</style>
<g>
	<g>
		<path class="st0" d="M8.5,5.5C9.2,5.9,9.6,6.4,9.6,7c0,0.3-0.1,0.6-0.3,0.8C9.1,8,8.9,8.1,8.6,8.1c-0.2,0-0.4,0-0.5-0.1
			C7.9,8,7.7,7.9,7.6,7.8C7.5,7.7,7.3,7.6,7.2,7.5C7.1,7.5,6.9,7.4,6.6,7.3C6.3,7.3,6.1,7.3,5.9,7.3c-1.1,0-1.9,0.3-2.5,1
			c-0.6,0.7-0.9,1.5-0.9,2.6c0,1,0.3,1.9,0.9,2.5c0.6,0.7,1.4,1,2.3,1c0.7,0,1.2-0.1,1.5-0.3c0.1,0,0.2-0.1,0.3-0.2
			c0.1-0.1,0.3-0.2,0.4-0.2c0.1-0.1,0.3-0.1,0.5-0.1c0.4,0,0.6,0.1,0.8,0.3c0.2,0.2,0.3,0.5,0.3,0.9c0,0.3-0.2,0.7-0.6,1
			c-0.4,0.3-0.9,0.5-1.6,0.7c-0.6,0.2-1.3,0.3-2.1,0.3c-1.1,0-2-0.3-2.9-0.8c-0.8-0.5-1.5-1.2-1.9-2.1c-0.5-0.9-0.7-1.9-0.7-3
			c0-1.1,0.2-2.2,0.7-3s1.1-1.6,2-2.1c0.8-0.5,1.8-0.8,2.9-0.8C6.8,4.9,7.7,5.1,8.5,5.5z"/>
		<path class="st0" d="M19.9,5.5c0.2,0.2,0.4,0.6,0.4,0.9v5.4c0,1.5-0.4,2.7-1.3,3.6c-0.8,0.9-2,1.3-3.6,1.3c-1.6,0-2.7-0.4-3.6-1.3
			c-0.8-0.9-1.2-2.1-1.2-3.6V6.4c0-0.4,0.1-0.7,0.4-0.9c0.2-0.2,0.5-0.4,0.9-0.4s0.7,0.1,0.9,0.4c0.2,0.2,0.4,0.6,0.4,0.9v5.4
			c0,0.9,0.2,1.5,0.6,1.9c0.4,0.4,1,0.6,1.7,0.6c0.8,0,1.4-0.2,1.7-0.6c0.4-0.4,0.6-1.1,0.6-1.9V6.4c0-0.4,0.1-0.7,0.4-0.9
			c0.2-0.2,0.5-0.4,0.9-0.4C19.3,5.1,19.6,5.3,19.9,5.5z M12.3,3.5C12.1,3.4,12,3.1,12,2.7V2.3c0-0.4,0.1-0.7,0.3-0.8
			c0.2-0.2,0.5-0.2,0.9-0.2c0.5,0,0.9,0.1,1.1,0.2c0.2,0.2,0.3,0.4,0.3,0.8v0.4c0,0.4-0.1,0.7-0.3,0.8c-0.2,0.1-0.6,0.2-1,0.2
			C12.8,3.8,12.5,3.7,12.3,3.5z M16.5,3.5c-0.2-0.2-0.3-0.4-0.3-0.8V2.3c0-0.4,0.1-0.7,0.3-0.8c0.2-0.2,0.5-0.2,1-0.2
			c0.5,0,0.8,0.1,1,0.2c0.2,0.2,0.3,0.4,0.3,0.8v0.4c0,0.4-0.1,0.7-0.3,0.8c-0.2,0.1-0.6,0.2-1,0.2C17,3.8,16.7,3.7,16.5,3.5z"/>
		<path class="st0" d="M30.5,5.7c0.8,0.5,1.4,1.2,1.9,2.1c0.5,0.9,0.7,1.9,0.7,3s-0.2,2.1-0.7,3c-0.5,0.9-1.1,1.6-1.9,2.1
			c-0.8,0.5-1.6,0.8-2.6,0.8c-0.7,0-1.3-0.1-1.9-0.4c-0.6-0.3-1.1-0.6-1.5-1v0.1c0,0.4-0.1,0.7-0.4,0.9c-0.2,0.2-0.5,0.4-0.9,0.4
			c-0.4,0-0.7-0.1-0.9-0.4S22,15.8,22,15.4V2.1c0-0.4,0.1-0.7,0.4-0.9s0.5-0.4,0.9-0.4c0.4,0,0.7,0.1,0.9,0.4
			c0.2,0.2,0.4,0.6,0.4,0.9v4.4c0.3-0.4,0.8-0.8,1.4-1.1c0.6-0.3,1.2-0.5,1.9-0.5C28.9,4.9,29.8,5.2,30.5,5.7z M29.8,13.3
			c0.6-0.7,0.9-1.5,0.9-2.5s-0.3-1.9-0.9-2.5c-0.6-0.7-1.3-1-2.2-1s-1.7,0.3-2.2,1c-0.6,0.7-0.9,1.5-0.9,2.5s0.3,1.9,0.9,2.5
			c0.6,0.7,1.3,1,2.2,1C28.5,14.3,29.2,14,29.8,13.3z"/>
		<path class="st0" d="M42.8,5.7c0.8,0.5,1.4,1.2,1.9,2.1c0.5,0.9,0.7,1.9,0.7,3s-0.2,2.1-0.7,3c-0.5,0.9-1.1,1.6-1.9,2.1
			c-0.8,0.5-1.6,0.8-2.6,0.8c-0.7,0-1.3-0.1-1.9-0.4c-0.6-0.3-1.1-0.6-1.5-1v0.1c0,0.4-0.1,0.7-0.4,0.9c-0.2,0.2-0.5,0.4-0.9,0.4
			c-0.4,0-0.7-0.1-0.9-0.4s-0.4-0.6-0.4-0.9V2.1c0-0.4,0.1-0.7,0.4-0.9s0.5-0.4,0.9-0.4c0.4,0,0.7,0.1,0.9,0.4
			c0.2,0.2,0.4,0.6,0.4,0.9v4.4c0.3-0.4,0.8-0.8,1.4-1.1c0.6-0.3,1.2-0.5,1.9-0.5C41.1,4.9,42,5.2,42.8,5.7z M42,13.3
			c0.6-0.7,0.9-1.5,0.9-2.5S42.6,8.9,42,8.3c-0.6-0.7-1.3-1-2.2-1c-0.9,0-1.7,0.3-2.2,1c-0.6,0.7-0.9,1.5-0.9,2.5s0.3,1.9,0.9,2.5
			c0.6,0.7,1.3,1,2.2,1C40.7,14.3,41.4,14,42,13.3z"/>
		<path class="st0" d="M56.2,11.4c-0.3,0.2-0.5,0.3-0.9,0.3h-7c0.2,0.8,0.6,1.5,1.2,2c0.6,0.5,1.3,0.7,2.1,0.7c0.6,0,1-0.1,1.4-0.2
			c0.3-0.1,0.6-0.2,0.8-0.3c0.2-0.1,0.3-0.2,0.4-0.2c0.3-0.1,0.5-0.2,0.7-0.2c0.3,0,0.5,0.1,0.8,0.3s0.3,0.5,0.3,0.7
			c0,0.4-0.2,0.7-0.6,1c-0.4,0.3-0.9,0.6-1.6,0.8c-0.7,0.2-1.3,0.3-2,0.3c-1.2,0-2.2-0.2-3.1-0.7c-0.9-0.5-1.6-1.2-2-2
			S45.9,12,45.9,11c0-1.2,0.3-2.3,0.8-3.2c0.5-0.9,1.2-1.6,2-2.1c0.8-0.5,1.7-0.7,2.7-0.7c0.9,0,1.8,0.3,2.6,0.8
			c0.8,0.5,1.5,1.2,2,2.1c0.5,0.9,0.7,1.8,0.7,2.8C56.6,10.9,56.5,11.2,56.2,11.4z M48.4,9.6h5.5V9.4c-0.1-0.6-0.3-1.1-0.9-1.5
			c-0.5-0.4-1.1-0.6-1.8-0.6C49.7,7.3,48.7,8,48.4,9.6z"/>
		<path class="st0" d="M60.2,16.1c-0.2,0.2-0.6,0.4-0.9,0.4c-0.4,0-0.6-0.1-0.9-0.4c-0.2-0.2-0.4-0.6-0.4-0.9V2.1
			c0-0.4,0.1-0.7,0.4-0.9c0.2-0.2,0.6-0.4,0.9-0.4c0.4,0,0.6,0.1,0.9,0.4c0.2,0.2,0.4,0.6,0.4,0.9v13.1
			C60.6,15.5,60.4,15.8,60.2,16.1z"/>
		<path class="st0" d="M62.6,3.5c-0.2-0.2-0.3-0.4-0.3-0.8V2.3c0-0.4,0.1-0.7,0.3-0.8c0.2-0.2,0.5-0.2,1-0.2c0.5,0,0.8,0.1,1,0.2
			C64.9,1.6,65,1.9,65,2.3v0.4c0,0.4-0.1,0.7-0.3,0.8c-0.2,0.1-0.6,0.2-1,0.2C63.2,3.8,62.8,3.7,62.6,3.5z M64.6,16.1
			c-0.2,0.2-0.5,0.4-0.9,0.4c-0.4,0-0.7-0.1-0.9-0.4c-0.2-0.2-0.4-0.6-0.4-0.9V6.4c0-0.4,0.1-0.7,0.4-0.9c0.2-0.2,0.5-0.4,0.9-0.4
			c0.4,0,0.7,0.1,0.9,0.4C64.8,5.8,65,6.1,65,6.4v8.7C65,15.5,64.8,15.8,64.6,16.1z"/>
		<path class="st0" d="M76.7,1.2C76.9,1.4,77,1.7,77,2.1v13.1c0,0.4-0.1,0.7-0.4,0.9c-0.2,0.2-0.5,0.4-0.9,0.4s-0.7-0.1-0.9-0.4
			c-0.2-0.2-0.4-0.5-0.4-0.9c-0.4,0.4-0.8,0.8-1.4,1c-0.6,0.3-1.2,0.4-1.9,0.4c-1,0-1.9-0.2-2.6-0.8c-0.8-0.5-1.4-1.2-1.9-2.1
			c-0.5-0.9-0.7-1.9-0.7-3c0-1.1,0.2-2.1,0.7-3c0.5-0.9,1.1-1.6,1.9-2.1c0.8-0.5,1.6-0.8,2.6-0.8c0.7,0,1.3,0.1,1.9,0.4
			c0.6,0.2,1.1,0.6,1.5,0.9V2.1c0-0.4,0.1-0.7,0.4-0.9c0.2-0.2,0.5-0.4,0.9-0.4S76.4,0.9,76.7,1.2z M73.7,13.3
			c0.6-0.7,0.9-1.5,0.9-2.5S74.3,9,73.7,8.3c-0.6-0.7-1.3-1-2.2-1c-0.9,0-1.6,0.3-2.2,1c-0.6,0.7-0.9,1.5-0.9,2.5s0.3,1.9,0.9,2.5
			c0.6,0.7,1.3,1,2.2,1S73.2,14,73.7,13.3z"/>
		<path class="st0" d="M88.6,11.4c-0.3,0.2-0.5,0.3-0.9,0.3h-7c0.2,0.8,0.6,1.5,1.2,2c0.6,0.5,1.3,0.7,2.1,0.7c0.6,0,1-0.1,1.4-0.2
			c0.3-0.1,0.6-0.2,0.8-0.3c0.2-0.1,0.3-0.2,0.4-0.2c0.3-0.1,0.5-0.2,0.7-0.2c0.3,0,0.5,0.1,0.8,0.3c0.2,0.2,0.3,0.5,0.3,0.7
			c0,0.4-0.2,0.7-0.6,1c-0.4,0.3-0.9,0.6-1.6,0.8c-0.7,0.2-1.3,0.3-2,0.3c-1.2,0-2.2-0.2-3.1-0.7c-0.9-0.5-1.6-1.2-2-2
			C78.4,13,78.2,12,78.2,11c0-1.2,0.3-2.3,0.8-3.2c0.5-0.9,1.2-1.6,2-2.1c0.8-0.5,1.7-0.7,2.7-0.7c0.9,0,1.8,0.3,2.6,0.8
			c0.8,0.5,1.5,1.2,2,2.1c0.5,0.9,0.7,1.8,0.7,2.8C89,10.9,88.8,11.2,88.6,11.4z M80.7,9.6h5.5V9.4c-0.1-0.6-0.3-1.1-0.9-1.5
			c-0.5-0.4-1.1-0.6-1.8-0.6C82,7.3,81,8,80.7,9.6z"/>
		<path class="st0" d="M99.2,6.2c0.5,0.9,0.8,2,0.8,3.5v5.4c0,0.4-0.1,0.7-0.4,0.9c-0.2,0.2-0.5,0.4-0.9,0.4s-0.7-0.1-0.9-0.4
			c-0.2-0.2-0.4-0.6-0.4-0.9V9.8c0-0.8-0.2-1.4-0.5-1.8s-0.9-0.7-1.7-0.7c-0.8,0-1.5,0.2-1.9,0.7c-0.5,0.5-0.7,1.1-0.7,1.8v5.4
			c0,0.4-0.1,0.7-0.4,0.9c-0.2,0.2-0.5,0.4-0.9,0.4c-0.4,0-0.7-0.1-0.9-0.4c-0.2-0.2-0.4-0.6-0.4-0.9V6.4c0-0.4,0.1-0.7,0.4-0.9
			c0.2-0.2,0.5-0.4,0.9-0.4c0.4,0,0.7,0.1,0.9,0.4c0.2,0.2,0.4,0.6,0.4,0.9v0.4c0.4-0.5,0.9-0.9,1.5-1.3c0.6-0.4,1.3-0.6,2-0.6
			C97.6,4.9,98.6,5.4,99.2,6.2z"/>
	</g>
</g>
</svg>
